Coordinates
version=1
nRows=5
nColumns=40
inDegrees=yes

Units are S.I. units (second, meters, Newtons, ...)
Angles are in degrees.

endheader
time	pelvis_tilt	pelvis_list	pelvis_rotation	pelvis_tx	pelvis_ty	pelvis_tz	hip_flexion_r	hip_adduction_r	hip_rotation_r	knee_angle_r	knee_angle_r_beta	ankle_angle_r	subtalar_angle_r	mtp_angle_r	hip_flexion_l	hip_adduction_l	hip_rotation_l	knee_angle_l	knee_angle_l_beta	ankle_angle_l	subtalar_angle_l	mtp_angle_l	lumbar_extension	lumbar_bending	lumbar_rotation	arm_flex_r	arm_add_r	arm_rot_r	elbow_flex_r	pro_sup_r	wrist_flex_r	wrist_dev_r	arm_flex_l	arm_add_l	arm_rot_l	elbow_flex_l	pro_sup_l	wrist_flex_l	wrist_dev_l
     24.31250000	     -6.01820496	     -4.16847683	      2.78131008	      1.12194813	      0.91299654	      0.43710951	      2.09032833	     -2.25085457	    -13.34623453	     33.67132990	     33.67132990	     11.31014242	    -10.90637889	    -14.41946658	     31.25462177	     -4.73764072	     -6.43486477	     26.26168121	     26.26168121	      4.75954240	    -16.33490996	      4.50953157	     -7.11512347	      4.77541663	      3.51433455	     28.75098533	    -15.75147386	    -11.89584828	    104.28427022	     44.31599292	      0.00000000	      0.00000000	    -13.01352954	     -6.71847078	      1.39656019	     20.44567205	     45.99716842	      0.00000000	      0.00000000
     24.32400000	     -5.89248203	     -3.92971570	      2.54456659	      1.12168759	      0.91480420	      0.43449840	      4.07081404	     -3.23813432	    -12.86123927	     38.22948839	     38.22948839	      9.60363836	    -12.52929052	    -14.32574518	     30.28826534	     -4.52981217	     -6.98999086	     26.11568017	     26.11568017	      5.51046913	    -15.98501849	      4.04631611	     -7.30060194	      4.54655750	      3.15059744	     26.90294324	    -15.44855985	    -11.56930921	    103.48064936	     44.33028673	      0.00000000	      0.00000000	    -11.88756109	     -6.73440091	      1.41082181	     20.96837507	     46.01650342	      0.00000000	      0.00000000
     24.33550000	     -5.84473807	     -3.75059307	      2.32474473	      1.12119420	      0.91643419	      0.43204524	      6.30011702	     -4.06243000	    -12.22082082	     42.81837765	     42.81837765	      7.86951192	    -14.22318253	    -13.78895847	     29.37997091	     -4.37874309	     -7.57684202	     25.87352728	     25.87352728	      6.20712476	    -15.47858182	      3.50708684	     -7.37887947	      4.39659396	      2.88875712	     24.90239621	    -15.24522708	    -11.27125945	    102.46379041	     44.35132328	      0.00000000	      0.00000000	    -10.63591235	     -6.82107993	      1.39339549	     21.65834282	     46.04241770	      0.00000000	      0.00000000
     24.34700000	     -5.77747846	     -3.59871718	      2.10144252	      1.12054138	      0.91799871	      0.42977064	      8.58663828	     -4.78304728	    -11.55324394	     47.29160189	     47.29160189	      6.28959077	    -15.59385252	    -12.88236830	     28.44302234	     -4.26918503	     -8.20036692	     25.59106201	     25.59106201	      6.83841399	    -14.86129497	      2.91989056	     -7.48528919	      4.26267802	      2.67293705	     22.83527032	    -15.08027299	    -10.99393908	    101.22712539	     44.37930725	      0.00000000	      0.00000000	     -9.28535297	     -6.96767346	      1.35642367	     22.45422871	     46.07229467	      0.00000000	      0.00000000
     24.35850000	     -5.69365034	     -3.45997381	      1.88778581	      1.11980219	      0.91947434	      0.42765991	     10.88522550	     -5.41746570	    -10.88785180	     51.56207035	     51.56207035	      5.02314029	    -16.50623392	    -11.67842490	     27.48044390	     -4.18031617	     -8.86851261	     25.27341713	     25.27341713	      7.39527249	    -14.15172558	      2.29826860	     -7.56415982	      4.16119050	      2.49083424	     20.73340878	    -14.95868239	    -10.74414913	     99.73512327	     44.41594174	      0.00000000	      0.00000000	     -7.87383177	     -7.17700000	      1.30479754	     23.31787648	     46.10462408	      0.00000000	      0.00000000
